<?xml version="1.0" encoding="iso-8859-1"?>
<svg version="1.1" id="Layer_1" xmlns="http://www.w3.org/2000/svg" xmlns:xlink="http://www.w3.org/1999/xlink" x="0px" y="0px"
	 viewBox="0 0 512.001 512.001" style="enable-background:new 0 0 512.001 512.001;" xml:space="preserve">
<path style="fill:#41A85F;" d="M363.503,321.33c-2.403-2.923-4.889-5.653-7.428-8.211c39.581,9.737,77.592-3.549,85.153-31.438
	c6.88-25.299-14.056-53.07-47.634-65.313c32.168-50.931,38.114-108.683,13.536-133.462c-24.148-24.457-68.611-9.472-107.989,29.099
	c-14.102-32.258-37.312-49.492-56.148-40.843c-22.315,10.317-30.812,51.879-21.241,94.848c-2.295-2.722-4.737-5.382-7.336-7.944
	c-30.306-29.806-68.842-35.829-85.645-15.907c-15.799,18.756-7.616,53.722,17.476,82.624c-4.854-0.395-9.88-0.414-15.041-0.009
	c-42.882,3.6-78.52,33.159-80.739,66.11c-1.466,22.278,12.632,41.205,35.106,51.29c-0.473,0.432-0.957,0.849-1.423,1.294
	c-31.484,30.174-35.981,77.453-10.161,109.293c25.816,31.74,73.654,36.09,107.08,6.01c0.493-0.444,0.957-0.908,1.437-1.362
	c6.835,25.212,23.44,43.083,45.665,44.109c32.976,1.69,65.952-36.179,71.444-84.806c0.662-5.823,0.89-11.509,0.738-17.015
	c26.171,29.353,59.821,39.85,78.094,21.103C397.925,400.884,391.55,355.263,363.503,321.33z"/>
<path d="M467.372,1.721c-4.808-3.168-11.275-1.839-14.444,2.971c-14.588,22.138-29.532,43.941-44.806,65.41
	c-25.951-18.685-66.428-9.181-105.895,24.893c-9.705-16.788-22.152-28.829-35.294-33.837c-9.701-3.697-19.485-3.517-28.318,0.541
	c-21.196,9.8-32.731,40.111-31.053,76.942c-17.311-12.515-36.542-19.243-53.757-18.443c-13.723,0.638-25.135,5.908-33.01,15.243
	c-16.029,19.029-13.533,49.915,5.067,79.404c-45.996,5.652-83.29,38.067-85.801,75.353c-1.414,21.486,9.353,41.446,28.719,54.541
	c-12.254,14.92-19.818,32.932-21.583,51.778c-2.151,22.986,4.487,45.293,18.702,62.822c14.278,17.554,34.586,28.189,57.183,29.946
	c19.287,1.5,38.261-3.656,54.587-14.656c10.325,22.391,28.58,36.314,49.968,37.301c0.904,0.046,1.805,0.069,2.708,0.069
	c37.174-0.002,71.619-39.1,79.037-89.536c14.62,11.381,30.246,17.814,44.771,18.138c12.545,0.302,23.503-4.052,31.748-12.511
	c11.796-12.061,16.488-30.985,13.212-53.285c-2.415-16.441-8.947-33.103-18.73-48.099c0.4,0.004,0.798,0.006,1.196,0.006
	c34.248-0.001,62.62-16.14,69.709-42.295c4.159-15.295,0.497-31.8-10.312-46.473c-7.838-10.64-19.09-19.784-32.376-26.445
	c12.863-23.114,21.088-47.807,23.412-70.613c2.234-21.931-1.149-40.937-9.54-54.979c16.34-22.868,32.303-46.118,47.869-69.742
	C473.511,11.357,472.181,4.89,467.372,1.721z M411.268,138.772c-2.358,23.133-11.765,48.713-26.491,72.027
	c-1.684,2.666-2.07,5.952-1.052,8.936c1.018,2.984,3.332,5.347,6.296,6.427c28.785,10.496,46.473,33.187,41.144,52.791
	c-5.873,21.658-38.443,32.441-72.599,24.04c-4.54-1.112-9.263,0.925-11.565,4.989c-2.302,4.065-1.618,9.166,1.674,12.483
	c2.378,2.395,4.659,4.915,6.775,7.489c0.005,0.007,0.01,0.014,0.016,0.02c26.001,31.457,29.642,71.103,15.513,85.548
	c-4.175,4.283-9.654,6.393-16.363,6.232c-14.317-0.318-31.694-10.409-46.481-26.996c-2.914-3.27-7.565-4.369-11.63-2.752
	c-4.07,1.616-6.696,5.602-6.575,9.98c0.143,5.127-0.084,10.358-0.675,15.555c-2.408,21.316-10.574,41.091-22.995,55.684
	c-11.302,13.277-24.979,20.524-37.609,19.877c-16.618-0.767-30.108-14.383-36.081-36.422c-0.96-3.543-3.714-6.321-7.248-7.312
	c-0.929-0.26-1.876-0.387-2.814-0.387c-2.636,0-5.216,1.001-7.179,2.863l-0.528,0.506c-0.238,0.228-0.472,0.458-0.707,0.669
	c-14.059,12.652-31.595,18.865-49.394,17.476c-16.847-1.311-31.984-9.234-42.613-22.303c-22.45-27.686-18.462-68.611,9.261-95.181
	c0.219-0.208,0.443-0.406,0.665-0.605l0.587-0.528c2.595-2.368,3.826-5.884,3.27-9.354c-0.555-3.469-2.82-6.426-6.027-7.865
	c-19.266-8.644-30.096-24.005-28.972-41.076c1.884-27.971,33.826-53.283,71.151-56.415c4.497-0.355,8.996-0.352,13.376,0.006
	c4.236,0.351,8.236-1.902,10.151-5.683c1.914-3.781,1.349-8.345-1.428-11.545c-21.863-25.182-29.332-54.877-17.379-69.066
	c5.088-6.033,12.616-7.6,18.033-7.851c16.176-0.767,36.216,8.624,52.321,24.463c2.276,2.243,4.525,4.679,6.685,7.239
	c3.095,3.671,8.297,4.753,12.599,2.622s6.593-6.925,5.549-11.61c-9.477-42.548,0.635-76.271,15.414-83.105
	c3.708-1.703,7.686-1.701,12.165,0.006c10.926,4.163,22.171,17.448,30.079,35.538c1.373,3.141,4.202,5.406,7.567,6.059
	c3.368,0.653,6.835-0.388,9.283-2.787c34.213-33.509,70-46.177,89.515-32.403c-21.079,29.041-42.789,57.432-65.088,85.159
	c-14.565-5.799-29.303-11.547-43.933-17.119c-5.382-2.05-11.405,0.651-13.455,6.032c-2.05,5.381,0.651,11.406,6.032,13.455
	c12.505,4.763,25.097,9.654,37.585,14.596c-11.888,14.477-23.948,28.755-36.161,42.849c-23.4-4.444-47.069-8.798-70.469-12.948
	c-5.669-1.006-11.083,2.775-12.088,8.447c-1.005,5.67,2.777,11.082,8.447,12.088c19.303,3.423,38.794,6.983,58.162,10.619
	c-12.298,13.866-24.756,27.531-37.364,41.004l-85.12-1.28c-0.054-0.001-0.106-0.001-0.16-0.001c-5.685,0-10.337,4.566-10.423,10.271
	c-0.087,5.758,4.511,10.496,10.269,10.582l65.937,0.992c-29.457,30.621-59.717,60.176-90.74,88.603
	c-4.246,3.89-4.534,10.486-0.643,14.732c2.057,2.244,4.869,3.382,7.691,3.382c2.516,0,5.04-0.905,7.041-2.739
	c30.625-28.063,60.509-57.218,89.622-87.394c-0.646,23.716-1.67,47.526-3.07,71.082c-0.341,5.748,4.041,10.685,9.791,11.026
	c0.211,0.013,0.419,0.019,0.629,0.019c5.475,0,10.069-4.271,10.399-9.809c1.866-31.418,3.073-63.283,3.606-94.788
	c12.063-12.884,23.992-25.939,35.774-39.178c3.429,21.191,6.574,42.545,9.383,63.733c0.694,5.244,5.174,9.058,10.323,9.058
	c0.457,0,0.919-0.029,1.384-0.092c5.709-0.757,9.722-5.998,8.966-11.707c-3.584-27.036-7.725-54.329-12.289-81.23
	c11.727-13.521,23.313-27.211,34.744-41.08c4.887,13.284,9.678,26.671,14.292,39.991c1.494,4.313,5.533,7.016,9.852,7.016
	c1.131,0,2.283-0.187,3.413-0.578c5.442-1.886,8.324-7.825,6.44-13.266c-6.002-17.321-12.294-34.75-18.718-51.922
	c21.391-26.553,42.236-53.72,62.517-81.468C411.612,114.347,412.593,125.762,411.268,138.772z"/>
</svg>
